<?xml version="1.0" encoding="UTF-8"?>
<svg xmlns="http://www.w3.org/2000/svg" xmlns:xlink="http://www.w3.org/1999/xlink" viewBox="0 0 872 872">
  <defs>
    <style>
      .cls-1, .cls-2, .cls-3, .cls-4, .cls-5, .cls-6, .cls-7, .cls-8, .cls-9, .cls-10 {
        fill: none;
      }

      .cls-2 {
        stroke-linejoin: round;
      }

      .cls-2, .cls-3, .cls-4, .cls-5, .cls-6, .cls-7, .cls-8, .cls-9, .cls-10 {
        stroke: #00070e;
      }

      .cls-2, .cls-5, .cls-9 {
        stroke-width: 9px;
      }

      .cls-2, .cls-9, .cls-10 {
        stroke-linecap: round;
      }

      .cls-3 {
        stroke-width: 11px;
      }

      .cls-3, .cls-4, .cls-5, .cls-6, .cls-7, .cls-8, .cls-9, .cls-10 {
        stroke-miterlimit: 10;
      }

      .cls-4, .cls-10 {
        stroke-width: 6px;
      }

      .cls-6 {
        stroke-width: 33px;
      }

      .cls-11 {
        fill: #5c73ff;
      }

      .cls-12 {
        clip-path: url(#clippath-1);
      }

      .cls-7 {
        stroke-width: 3px;
      }

      .cls-8 {
        stroke-width: 4px;
      }

      .cls-13 {
        fill: #fff;
      }

      .cls-14 {
        fill: #00070e;
      }

      .cls-15 {
        clip-path: url(#clippath);
      }
    </style>
    <clipPath id="clippath">
      <path class="cls-1" d="M374.12,116.62c-185.57,0-336,150.43-336,336,0,42.06,7.75,82.31,21.87,119.42,53.03-33.57,76.58-42.22,83.46-44.25l35.95-56.36,8.72,8.19-38.44,57.01-2.12.41c-.18.04-21.36,4.78-83.82,44.47,21.73,52.28,56.29,97.88,99.75,132.9,31.04,6.35,53.13,8.22,84.62,11.23,0,0,5-1,5-1,1.42-3.82,1.73.23,3.93-2.69,7.05-9.18,14.87-15.42,24.37-21.88,8.75,3.16,17.6,6.3,26.4,9.22,6.92,2,14.51,5.82,21.55,3.13,6.55-2.43,12.13-8.72,15.65-14.87,3.7-6.59,5.88-14.24,6.11-21.83,0,0,.05-2.8.05-2.8l2.19-1.45,69.76-46.83,8.76,11.17-68.89,45.61c-1.05,13.1-6.39,26.01-15.87,35.28-5.28,5.3-12.4,9.42-20.1,9.66-7.18.26-13.7-2.56-20.33-4.57-7.33-2.43-14.56-4.97-21.79-7.57-.61.44-1.22.9-1.81,1.35-8.21,6.5-17.21,14.01-21.26,23.77,0,0-1.46,3.61-1.46,3.61-18.75-1.58-37.31-3.84-55.88-6.7-4.78-.76-9.55-1.56-14.31-2.42,52.85,34.64,116.04,54.81,183.95,54.81,185.57,0,336-150.43,336-336S559.69,116.62,374.12,116.62Z"/>
    </clipPath>
    <clipPath id="clippath-1">
      <rect class="cls-1" x="245.04" y="166.59" width="258.16" height="572.07"/>
    </clipPath>
  </defs>
  <g id="Layer_10">
    <g class="cls-15">
      <circle class="cls-6" cx="374.12" cy="452.62" r="334.23"/>
      <g id="BACK">
        <circle class="cls-14" cx="374.12" cy="452.62" r="284.11"/>
      </g>
      <g class="cls-12">
        <circle id="BLUE" class="cls-11" cx="374.12" cy="452.62" r="273.08"/>
      </g>
      <circle class="cls-8" cx="374.12" cy="452.62" r="308.63"/>
    </g>
  </g>
  <g id="Color">
    <g id="whites">
      <path class="cls-11" d="M321.12,589.62s-52,22-69,51l-189-52s78-64,90-49l168,50Z"/>
      <path class="cls-13" d="M252.12,688.62l-1,40s-147-14-195-59l2-35s99,54,194,54Z"/>
      <path class="cls-13" d="M251.12,728.62c7-15,45-36,45-36l2-26c-6-6-46,22-46,22l-1,40Z"/>
      <ellipse class="cls-13" cx="326.62" cy="676.62" rx="22.5" ry="37"/>
      <path class="cls-13" d="M386.12,624.62c11,10,18,11,18,11l-50,33,2-25,30-19Z"/>
      <path class="cls-13" d="M361.12,503.62l-34,86-174-54,50-72s91,17,158,40Z"/>
      <path class="cls-13" d="M406.12,498.62s-7,21-10,43l-63,43,32-78,41-8Z"/>
      <path class="cls-13" d="M459.12,520.62l-45,15c3-24,10-40,10-40l33-7,2,32Z"/>
      <path class="cls-13" d="M411.12,568.62l-24,55s9,11,18,11c0,0,100,6,150-54,0,0,21-9,27-21,0,0,49-16,49-30l-40-1s106-24,108-58c0,0,79-57,76-98,0,0,72-55,71-119,0,0,22.09-28.86,16.58-62.3,0,0-30.58,18.3-36.58,13.3,0,0,33-49,29-69,0,0-91,23-175,83s-152,91-152,91l23-39,14-50s26-30,16-132l-54,39s4-18-1-25l-154,147s6-35-7-46l-59,83-106,116s0-14,11-29c0,0-64,42-27,111l14-18,107-27,74,23,21-10,18-14,41,48,2,22-50,60Z"/>
    </g>
    <g id="blacks">
      <g id="blacks-2" data-name="blacks">
        <path class="cls-14" d="M282.59,577.39s-70.97,11.23-95.97,42.23l-71-19s32-48,68-53l98.97,29.77Z"/>
      </g>
      <path class="cls-14" d="M251.12,638.62v53s-173-29-194-60v-44l194,51Z"/>
      <path class="cls-14" d="M251.12,638.62s60-55,78-49c0,0,66-63,130-66l-12,36-37,13-26,51-29,24-2,17-16-20-17-3-12,11-6,11-23,8-28,17"/>
      <path class="cls-14" d="M361.12,505.62l88-19-144-45-100,21s143,33,156,43Z"/>
      <path class="cls-14" d="M406.12,498.62s-12,39-11,47l20-6s-2.81-19.36,12.1-47.68l-21.1,6.68Z"/>
    </g>
  </g>
  <g id="car_body">
    <line class="cls-8" x1="58.12" y1="589.62" x2="58.12" y2="628.62"/>
    <line class="cls-7" x1="251.12" y1="688.62" x2="251.12" y2="639.62"/>
    <path class="cls-3" d="M255.62,728.12c-170-22-198-61-198-61"/>
    <path class="cls-7" d="M425.52,492.78s-10.7,26.37-11.55,43.11"/>
    <path class="cls-7" d="M406.65,497s-10.53,35.16-10.53,46.62"/>
    <path class="cls-10" d="M329.62,589.62s45.5-49,127.5-68"/>
    <path class="cls-14" d="M431.12,412.62c-6.19,3.16-13.56-1.07-17.8-5.83-4.43-5.66-6.14-12.04-7.68-18.82,0-.01,8.76,1.07,8.76,1.06-1.88,6.01-3.62,12.65-4.23,18.88-.4,4.51-.13,8.98,1.35,13.15.38,1.01,1.05,2.49,1.56,3.18,0,0-.28-.31-.28-.31,13.61,14.08,43.82,44.98,48.41,63,5.98,23.28.74,48.26-10.28,69.22-1,1.83-1.95,3.66-3.24,5.38,0,0-.48.27-.48.27-8.8,4.73-26.63,14.06-36.37,10.8-.02,0,1.2-.51,1.2-.51,0,0-23.41,53.09-23.41,53.09,0,0-.59,1.14-.59,1.14,0,0-1.1.66-1.1.66,0,0-30,18-30,18,0,0,2.18-3.94,2.18-3.94,0,0,.5,28.5.5,28.5,0,0-7.06-3.62-7.06-3.62l48.5-33.5,5.11,7.41c-3.67,2.6-53.36,36.81-55.41,38.27,0,0-.15-8.4-.15-8.4-.06-.32-.53-32.21-.55-31.1,0,0,2.23-1.34,2.23-1.34l30-18-1.69,1.8s29.59-49.91,29.59-49.91c0,0,.45-.76.45-.76,8.24,2.48,25.01-10.74,31.37-15.95,0,0-1.19,1.24-1.19,1.24,3.08-5.05,5.59-10.54,7.68-16.08,5.98-16,8.28-33.75,3.96-50.43-1.55-6.12-5.66-11.71-9.33-16.98-10.96-14.9-23.75-28.67-36.71-41.87-2.81-3.37-4.1-7.69-4.88-11.87-1.83-11.05,1.13-21.79,4.28-32.23,0,0,6.84-21.35,6.84-21.35.29,3.68,2.21,23.67,1.92,26.77.18,4.17.66,8.96,2.4,12.59,2.73,4.99,7.88,9.83,14.11,8.41h0Z"/>
    <path class="cls-5" d="M251.12,730.62c11-22,46-40,46-40v-27c-16,3-46,24-46,24"/>
    <path class="cls-5" d="M251.12,731.62v-43c-170-22-193-56.5-193-56.5v38.5"/>
    <path class="cls-9" d="M327.12,589.12c-31,5-76,51.5-76,51.5l-191.5-51.5s67-49,93.5-50.5"/>
    <path class="cls-8" d="M364.12,504.62s-62.46-18.8-83-24-80-16-80-16"/>
    <polygon class="cls-2" points="362.12 505.62 328.12 588.62 153.12 538.62 201.12 464.62 306.12 441.62 454.62 487.12 362.12 505.62"/>
    <path class="cls-14" d="M353.41,677.74c-.72,13.67-5.98,29.24-18.93,36.17-6.35,3.45-14.58,3.03-20.49-1.14-21.22-14.67-19.4-60.17,2.94-73.1,6.23-3.67,14.46-3.45,20.52.51,12.35,7.94,16.34,23.88,15.97,37.57h0ZM344.79,677.39c.23-7.14-.81-14.54-3.8-21-4.1-9.4-13.38-16.08-22.91-9.34-16.2,11.81-17.55,45.38-2.35,58.46,8.96,7.47,18.73,1.57,23.58-7.48,3.5-6.2,5.13-13.49,5.47-20.63h0Z"/>
    <g>
      <ellipse class="cls-14" cx="322.96" cy="676.6" rx="23" ry="12.11" transform="translate(-366.06 972.13) rotate(-87.7)"/>
      <path class="cls-14" d="M338.58,677.22c-.48,7.8-2.43,15.82-8.15,21.61-3.28,3.45-9,4.79-13.07,1.93-10.47-7.54-10.05-28.42-5.53-39.26,2.99-7.92,10.81-14.5,18.79-8.01,6.56,6,8.1,15.31,7.96,23.74h0ZM331.54,676.94c.17-6.2-.55-12.92-4.05-17.98-1.73-2.46-4.34-3.48-6.97-1.62-9.54,7.21-10.59,31.16-1,38.62,2.27,1.69,4.92.58,6.54-1.42,3.9-4.76,5.16-11.41,5.48-17.6h0Z"/>
    </g>
    <g>
      <polygon class="cls-14" points="318.62 713.12 286.62 701.12 299.62 692.12 318.62 713.12"/>
      <path class="cls-14" d="M321.48,715.44c-5.43-1.35-12.22-2.87-17.62-4.39-8.54-2.32-17.14-5.84-25.32-9.1,5.28-3.51,16.33-10.78,21.67-14.33,4.14,4.7,8.3,9.62,11.98,14.78,3.34,4.65,6.17,8.93,9.28,13.04h0ZM315.68,711c-6.53-5.87-12.82-10.28-18.59-16.59,0,0,4.48.52,4.48.52l-12.81,9.28s-.82-6.6-.82-6.6c10.01,3.1,18.51,8.49,27.74,13.4h0Z"/>
    </g>
    <ellipse class="cls-13" cx="224.62" cy="659.12" rx="11" ry="14"/>
    <ellipse class="cls-13" cx="75.62" cy="617.12" rx="9" ry="13"/>
  </g>
  <g id="front_backwing">
    <path class="cls-14" d="M772.12,298.62c34.72-8.91,72.06-36.05,83.62-70.77,3.68-11.57,3.57-23.76.88-35.52,0,0,8.93,4.45,8.93,4.45-13.98,5.94-28.16,11.05-42.65,15.5,0,0-20.62,8.81-20.62,8.81l17.91-14.13c5.35-4.38,9.55-10.06,13.17-15.94,11.33-18.16,15.52-39.7,16.57-60.82,0,0,7.86,6.4,7.86,6.4-20.19,5.45-39.99,13-59.35,21.58-58.16,26.16-113.16,59.55-165.54,95.85,0,0-3.55-4.84-3.55-4.84,17.27-12.81,34.9-24.96,52.81-36.77,56.61-36.57,115.36-71.69,180.74-90.31,0,0-.58,8.91-.58,8.91-1.85,15.22-4.92,30.29-11,44.44-5.6,12.2-12.99,23.78-23.04,32.8-1.56,1.36-3.04,2.57-4.82,3.72,0,0-2.7-5.32-2.7-5.32,6.72-3.15,13.35-6.47,19.88-9.95,8.78-4.63,17.81-9.94,26.24-15.17,0,0,1.91,8.74,1.91,8.74,2.71,20.8-2.63,41.31-15.66,57.73-19.84,25.79-49.04,44.4-81,50.58h0Z"/>
    <path class="cls-14" d="M691.62,400.12c64-14.23,129.38-53.72,147.01-120.48,2.44-9.13,4.02-18.51,4.87-27.99,0,0,5.99.33,5.99.33-.44,12.36-2.38,24.75-5.9,36.65-10.7,36.01-36.89,65.84-68.58,85.17-25.02,15.32-53.8,26.18-83.38,26.33h0Z"/>
    <path class="cls-14" d="M608.12,490.62c23.41-3.21,46.79-6.17,68.75-15.13,39.82-16,74.45-47.04,91.05-86.95,2.93-7.44,5.22-15.31,6.21-23.23,0,0,5.97.62,5.97.62-.76,7.37-2.43,14.58-4.92,21.53-18.8,51.69-67.58,89.05-120.49,100.66-15.23,3.39-31.1,4.71-46.57,2.5h0Z"/>
  </g>
  <g id="front_wing">
    <path class="cls-14" d="M529.62,588.12c11.5-3.74,47.21-15.74,50.36-27.57,0,0,3.75.75,3.75.75-3.37,13.54-41.33,23.5-54.11,26.82h0Z"/>
    <path class="cls-14" d="M547.62,565.12c12.81-3.26,25.53-4.91,38.05-8.81,6.51-2.06,13.06-4.25,19.09-7.5,10.1-5.65,18.97-13.71,26.32-22.61,0,0,2.62,5.12,2.62,5.12l-45.07-2.2c5.4-1.39,10.76-2.87,16.1-4.43,26.08-7.92,53.18-16.43,75.29-32.64,8.1-6.23,15.82-14.45,17.13-24.76,0,0,5.96.67,5.96.67-2.85,23.28-30.14,36.88-49.53,44.79-20.88,8.19-42.75,13.57-64.95,16.38,4.09-.38,48.96-4.57,51.46-4.81,0,0-3.91,5.73-3.91,5.73-9.09,11.5-20.61,21.36-34.34,26.81-9.63,3.58-19.71,6.03-29.8,7.55-8.05,1.25-16.25,1.9-24.41.72h0Z"/>
    <path class="cls-14" d="M429.62,405.12c-2.2-1.13-4.53-2.1-5.91-4.38-.7-2.07-.93-4.24-1.21-6.39-1.01-11.08.05-22.23,2.81-33.01.86-4.05,4.57-11.42,6.4-15.32,0,0,2.15,9.37,2.15,9.37,1.48,6.4,3.43,15.54,4.81,22.04,0,0-5.78-.82-5.78-.82,6.69-11.33,12.83-22.79,20.62-33.47,4.21-5.27,9.61-9.39,14.72-13.68,5.07-4.12,10.19-8.1,15.41-12.03l10.39-7.83-5.39,11.93c-2.75,6.44-5.98,12.96-7.21,19.77-.02.18,0,.33,0,.23-.08-.63-.53-1.23-1.39-1.73-.9-.42-1.36-.33-1.91-.19-.07.04.09-.05.24-.16l1.54-1.13c27.51-20.04,56.88-37.25,86.06-54.6,39.42-23.11,79.27-45.41,119.4-67.28,0,0,1.16,6.8,1.16,6.8,1.31,8.93-6.8,19.83-11.49,26.84-5.16,7.23-10.58,13.95-16.44,20.63,0,0-6.23-8.42-6.23-8.42,9.6-4.42,137.91-65.8,144.78-67.96-6.78,11.45-14.82,24.83-22.18,35.59-13.59,20.1-28.3,39.46-44.59,57.45-21.66,23.25-46.35,47.06-77.73,55.75,15.3-4.92,28.65-14.27,40.67-24.7,23.91-21.14,43.22-46.94,60.66-73.52,8.6-13.28,16.86-27.08,24.19-41.02,0,0,7.41,7.89,7.41,7.89,0,0-128.65,60.18-128.65,60.18,0,0-24.08,11.26-24.08,11.26,5.66-6.36,20.87-22.69,26.09-29.23,5.23-6.39,10.44-13.12,14.5-20.2,1.53-2.8,3.2-5.81,3.33-8.78,0,0,7.22,3.49,7.22,3.49-57.28,30.39-114.44,61.41-169.65,95.42-10.28,6.44-20.48,12.97-30.26,20.05,0,0-1.75,1.25-1.75,1.25-.42.27-.83.55-1.53.84-2.72,1.24-5.87-.42-6.22-3.48-.32-3.09.81-5.78,1.65-8.53,1.88-5.35,4.07-10.31,6.41-15.34,0,0,5,4.1,5,4.1-7.72,5.7-15.45,11.53-22.73,17.77-7.42,5.91-12.02,14.3-16.98,22.27-4.67,7.64-9.14,16.07-13.39,23.98-2.16-9.35-5.06-20.63-7.11-29.96,0,0,6.23.68,6.23.68-.77,1.68-1.47,3.6-2.04,5.58-1.77,6.05-2.91,12.29-3.94,18.54-.89,5.77-1.81,11.56-1.94,17.39,0,0,0,.78,0,.78.01.19-.02.11-.01.2,0,.06.02.14.05.23.81,1.69,2.51,3.43,3.89,4.85h0Z"/>
    <path class="cls-14" d="M657.48,271.3c-31.85,15.78-64.05,31.56-93.33,51.86-4.1,3.01-8.14,6.14-11.53,9.97,3.19-3.99,7.11-7.34,11.07-10.56,20.15-15.74,42.3-28.69,64.32-41.6,8.85-5.11,17.74-10.12,26.75-15.02,0,0,2.72,5.35,2.72,5.35h0Z"/>
    <path class="cls-14" d="M388.53,623.15c3.49,6.48,10.96,9.47,17.95,10.63,7.58,1.28,15.15.29,22.71-.56,11.56-1.39,23.07-3.38,34.4-6.06,33.82-7.96,67.42-21.78,92.03-47.04-13.52,19.66-34.5,33.58-56.38,42.71-22.06,9.16-45.68,14.34-69.45,16.38-14.71,1.34-33.31,1.51-42.61-12.08-.6-1.01-1.09-1.85-1.48-3.04,0,0,2.82-.94,2.82-.94h0Z"/>
  </g>
  <g id="back_wing">
    <path class="cls-14" d="M355.62,267.12c-4.14,9.19-10.26,16.91-16.62,24.54-25.02,30.36-50.39,60.43-76.67,89.72-9.88,10.93-19.76,22.16-30.36,32.44-7.38,6.61-23.31,20.3-33.66,15.55-2.5-1.2-4.18-3.64-4.69-6.25,1.73,1.88,3.6,3.31,5.65,3.76,6.78,1.24,13.32-3.11,18.73-6.85,7.77-5.52,14.58-12.91,20.92-20.05,22.65-25.5,54.07-63.29,76.52-89.61,0,0,19.07-22.48,19.07-22.48,6.29-7.55,12.8-14.91,21.13-20.77h0Z"/>
    <path class="cls-14" d="M496.57,204.67c-1.64,5.61-3.87,10.96-6.28,16.23-4.9,10.49-10.1,20.85-15.6,31.04-11.6,21.07-32.4,57.36-55.03,66.63,14.59-17.37,28.85-35.76,41.1-54.83,6.29-9.58,12.39-19.33,18.21-29.26,5.91-9.89,11.07-20.16,17.61-29.81h0Z"/>
    <path class="cls-14" d="M368.14,253.29c.38-8.87,1.54-18.02.62-26.82-1.16-7.94-4.75-15.62-9.61-22-.14-.17-.33-.41-.4-.48,0,0,9.82-4.24,9.82-4.24.79,6.92-2.34,12.95-5.2,18.72-7.97,14.74-18.27,27.86-28.54,40.84-27.47,33.97-57.19,65.82-87.3,97.36-15.25,15.89-30.64,31.62-46.27,47.14,0,0-.71-.05-.71-.05-.51-.03-.92-.28-1.09-.44-.59-.45-.71-1.15-.86-1.73-.59-5.2,1.43-10.32,3.49-14.95,2.27-4.82,5.18-9.25,8.39-13.41,0,0,1.62,2.25,1.62,2.25-4.74,2.11-9.11,5.38-12.89,8.94-24.03,21.77-33.76,77.17-11.72,102.74,0,0-1.71,1.9-1.71,1.9-4.29-3.98-7.12-8.86-9.52-14.06-13.23-30.96-2.16-80.03,27.21-98.43,3.47-2.39,8.34-4.15,12.44-5.49-4.23,5.09-8.32,10.86-11.01,16.86-1.77,4.11-3.49,8.54-3.08,13.04.02.16.11.3,0,.08-.05-.07-.08-.12-.23-.26-.12-.1-.44-.33-.88-.34,0,0-1.26.49-1.26.49,44.49-47.43,88.61-95.65,128.2-147.24,6.49-8.62,12.81-17.37,18.52-26.36,4.57-7.54,9.56-15.13,11.43-23.65.16-.96.15-1.8.07-2.21,0,0-4.43-22.65-4.43-22.65,0,0,14.25,18.41,14.25,18.41.28.39.42.62.62.92,2.53,4,4.55,8.3,6.1,12.77,1.64,4.73,2.71,9.7,2.94,14.78.18,9.59-1.82,18.81-3.05,28.23,0,0-5.96-.66-5.96-.66h0Z"/>
    <path class="cls-14" d="M515.95,315.63c26-17.45,40.84-63.09,44.72-93.07.02.52.36,1.24.82,1.68,0,0,2.71.82,2.71.82-1.55.27-12.98,2.79-14.79,3.18,0,0,9.85-7.99,9.85-7.99,8.66-7.2,12.25-18.94,14.63-29.78,6.54-34.97,4.24-71.22,2.73-106.65,0,0,9.65,3.38,9.65,3.38-.63.64-1.15,1.13-1.73,1.67-14.66,13.69-31.2,25.11-48.03,35.91-2.46,1.62-4.93,3.2-7.35,4.9,0,0-3.13-5.12-3.13-5.12,2.51-1.43,5.01-2.88,7.43-4.45,7.2-4.66,14.11-10.18,20.63-15.73,7.6-6.55,14.82-13.52,21.29-21.15,2.28-2.6,8.56-11.54,10.63-14.33,0,0,1.57,14.53,1.57,14.53.43,24.15.49,48.3-1.34,72.45-1.62,18.17-3.57,37-11.44,53.89-2.76,5.67-6.53,11.2-11.86,15.23l-2.44-5.31c.99-.19,3.12-.63,4.09-.82,0,0,1.12,1.14,1.12,1.14,1.14,1.12.97,2.72.83,4.11-3.79,26.13-12.78,54.21-27.55,76.26-5.31,7.69-11.72,14.88-19.74,20.25,0,0-3.33-4.99-3.33-4.99h0Z"/>
    <path class="cls-4" d="M419.12,439.62s-14,20-44,24"/>
    <path class="cls-14" d="M369.02,250.48c49.2-49.74,107.5-107.65,157.11-156.93,0,0,3.31,5.52,3.31,5.52,9.35,16.66-.63,39.03-10.28,53.27-3.39,4.84-7.18,9.37-11.69,13.34,1.61-5.79,3.65-11.19,5.65-16.53,4.35-12.1,14.02-33.25,7.7-44.95,0,0,7.83,1.02,7.83,1.02-34.51,33.41-81.74,79.08-116.4,112.33,0,0-39.01,37.23-39.01,37.23-2.75,2.55-6.95-1.31-4.2-4.28h0Z"/>
  </g>
</svg>